<svg width="500" height="750" viewBox="0 0 500 750" fill="none" xmlns="http://www.w3.org/2000/svg">
<g clip-path="url(#clip0)">
<path d="M250 666.4V749.7H333.3V666.4H250Z" fill="#FFB41F"/>
<path d="M250 583.1V666.4H333.3V583.1H250Z" fill="#FFF9EB"/>
<path d="M83.3 583.1V666.4H166.6V583.1H83.3Z" fill="#FFB41F"/>
<path d="M125 666.4C148 666.4 166.7 647.8 166.7 624.8C166.7 601.8 148 583.2 125 583.2C102 583.2 83.3 601.8 83.3 624.8C83.3 647.7 102 666.4 125 666.4Z" fill="#2E3675"/>
<path d="M166.7 583.1V666.4H250V583.1H166.7Z" fill="#4D76F7"/>
<path d="M208.3 648.7C221.5 648.7 232.2 638 232.2 624.8C232.2 611.6 221.5 600.9 208.3 600.9C195.1 600.9 184.4 611.6 184.4 624.8C184.4 637.9 195.1 648.7 208.3 648.7Z" fill="#FF4A4A"/>
<path d="M83.3 6.10352e-05V83.3H0C0 37.3 37.3 6.10352e-05 83.3 6.10352e-05Z" fill="#2E3675"/>
<path d="M83.3 41.5001V83.2001H41.6C41.6 60.2001 60.3 41.5001 83.3 41.5001Z" fill="#FFF9EB"/>
<path d="M250 83.3L83.3 249.9L83.3 83.3H250Z" fill="#FFB41F"/>
<path d="M83.3 249.9C83.3 157.9 157.9 83.3 250 83.3V249.9H83.3Z" fill="#FFF9EB"/>
<path d="M122.5 249.9C122.5 179.5 179.6 122.4 250 122.4V249.9H122.5Z" fill="#2E3675"/>
<path d="M166.8 249.9C166.8 204 204 166.8 250 166.8V249.9H166.8Z" fill="#FF4A4A"/>
<path d="M416.7 583.1H500V499.8H416.7V583.1Z" fill="#2E3675"/>
<path d="M416.7 499.8H500V583.1L416.7 499.8Z" fill="#FFF9EB"/>
<path d="M166.7 333.2V416.5H250V333.2H166.7Z" fill="#FFF9EB"/>
<path d="M208.3 333.2C185.3 333.2 166.6 351.8 166.6 374.8V416.4H250V374.8C250 351.9 231.4 333.2 208.3 333.2Z" fill="#2E3675"/>
<path d="M166.7 416.5L250 499.8V416.5H166.7Z" fill="#2E3675"/>
<path d="M333.3 416.5V499.8H416.6V416.5H333.3Z" fill="#4D76F7"/>
<path d="M250 499.8H333.3L416.7 416.5H250V499.8Z" fill="#FFB41F"/>
<path d="M250 166.6V249.9H333.3V166.6H250Z" fill="#FFB41F"/>
<path d="M295.3 229.4C308.5 229.4 319.2 218.7 319.2 205.5C319.2 192.3 308.5 181.6 295.3 181.6C282.1 181.6 271.4 192.3 271.4 205.5C271.3 218.7 282.1 229.4 295.3 229.4Z" fill="#FF4A4A"/>
<path d="M250 83.3V166.6H333.3V83.3H250Z" fill="#4D76F7"/>
<path d="M295.3 147.2C308.5 147.2 319.2 136.5 319.2 123.3C319.2 110.1 308.5 99.4 295.3 99.4C282.1 99.4 271.4 110.1 271.4 123.3C271.3 136.5 282.1 147.2 295.3 147.2Z" fill="#FFF9EB"/>
<path d="M0 333.2L0 416.5H83.3V333.2H0Z" fill="#4D76F7"/>
<path d="M83.3 333.2V416.5H166.6V333.2H83.3Z" fill="#FFB41F"/>
<path d="M83.3 249.9V333.2H166.6V249.9H83.3Z" fill="#FFB41F"/>
<path d="M114.7 389.7C114.7 394.1 111.1 397.7 106.7 397.7C102.3 397.7 98.7 394.1 98.7 389.7C98.7 385.3 102.3 381.7 106.7 381.7C111.1 381.7 114.7 385.3 114.7 389.7Z" fill="#2E3675"/>
<path d="M114.7 351.6C114.7 356 111.1 359.6 106.7 359.6C102.3 359.6 98.7 356 98.7 351.6C98.7 347.2 102.3 343.6 106.7 343.6C111.1 343.6 114.7 347.2 114.7 351.6Z" fill="#2E3675"/>
<path d="M114.7 313.4C114.7 317.8 111.1 321.4 106.7 321.4C102.3 321.4 98.7 317.8 98.7 313.4C98.7 309 102.3 305.4 106.7 305.4C111.1 305.4 114.7 309 114.7 313.4Z" fill="#2E3675"/>
<path d="M114.7 275.3C114.7 279.7 111.1 283.3 106.7 283.3C102.3 283.3 98.7 279.7 98.7 275.3C98.7 270.9 102.3 267.3 106.7 267.3C111.1 267.3 114.7 270.9 114.7 275.3Z" fill="#2E3675"/>
<path d="M153.4 389.7C153.4 394.1 149.8 397.7 145.4 397.7C141 397.7 137.4 394.1 137.4 389.7C137.4 385.3 141 381.7 145.4 381.7C149.8 381.7 153.4 385.3 153.4 389.7Z" fill="#2E3675"/>
<path d="M153.4 351.6C153.4 356 149.8 359.6 145.4 359.6C141 359.6 137.4 356 137.4 351.6C137.4 347.2 141 343.6 145.4 343.6C149.8 343.6 153.4 347.2 153.4 351.6Z" fill="#2E3675"/>
<path d="M153.4 313.4C153.4 317.8 149.8 321.4 145.4 321.4C141 321.4 137.4 317.8 137.4 313.4C137.4 309 141 305.4 145.4 305.4C149.8 305.4 153.4 309 153.4 313.4Z" fill="#2E3675"/>
<path d="M153.4 275.3C153.4 279.7 149.8 283.3 145.4 283.3C141 283.3 137.4 279.7 137.4 275.3C137.4 270.9 141 267.3 145.4 267.3C149.8 267.3 153.4 270.9 153.4 275.3Z" fill="#2E3675"/>
<path d="M416.7 416.5V499.8H500V416.5H416.7Z" fill="#FFB41F"/>
<path d="M448.1 474.3C448.1 478.7 444.5 482.3 440.1 482.3C435.7 482.3 432.1 478.7 432.1 474.3C432.1 469.9 435.7 466.3 440.1 466.3C444.6 466.3 448.1 469.9 448.1 474.3Z" fill="#FFF9EB"/>
<path d="M448.1 436.1C448.1 440.5 444.5 444.1 440.1 444.1C435.7 444.1 432.1 440.5 432.1 436.1C432.1 431.7 435.7 428.1 440.1 428.1C444.6 428.2 448.1 431.7 448.1 436.1Z" fill="#FFF9EB"/>
<path d="M486.8 474.3C486.8 478.7 483.2 482.3 478.8 482.3C474.4 482.3 470.8 478.7 470.8 474.3C470.8 469.9 474.4 466.3 478.8 466.3C483.2 466.3 486.8 469.9 486.8 474.3Z" fill="#FFF9EB"/>
<path d="M486.8 436.1C486.8 440.5 483.2 444.1 478.8 444.1C474.4 444.1 470.8 440.5 470.8 436.1C470.8 431.7 474.4 428.1 478.8 428.1C483.2 428.1 486.8 431.7 486.8 436.1Z" fill="#FFF9EB"/>
<path d="M416.7 166.6H500V83.4H416.7V166.6Z" fill="#4D76F7"/>
<path d="M490.9 83.3V166.1H500V83.3H490.9Z" fill="#FFF9EB"/>
<path d="M472.3 83.3V166.1H481.4V83.3H472.3Z" fill="#FFF9EB"/>
<path d="M453.6 83.3V166.1H462.7V83.3H453.6Z" fill="#FFF9EB"/>
<path d="M435 83.3V166.1H444.1V83.3H435Z" fill="#FFF9EB"/>
<path d="M416.3 83.3V166.1H425.4V83.3H416.3Z" fill="#FFF9EB"/>
<path d="M333.3 499.8V583.1H416.6V499.8H333.3Z" fill="#4D76F7"/>
<path d="M333.4 499.3V508.4H416.2V499.3H333.4Z" fill="#FFF9EB"/>
<path d="M333.4 518V527.1H416.2V518H333.4Z" fill="#FFF9EB"/>
<path d="M333.4 536.6V545.7H416.2V536.6H333.4Z" fill="#FFF9EB"/>
<path d="M333.4 555.3V564.4H416.2V555.3H333.4Z" fill="#FFF9EB"/>
<path d="M333.4 573.9V583H416.2V573.9H333.4Z" fill="#FFF9EB"/>
<path d="M166.7 666.4V749.7H250V666.4H166.7Z" fill="#FF4A4A"/>
<path d="M166.7 666.4V675.5H250V666.4H166.7Z" fill="#FFB41F"/>
<path d="M166.7 685V694.1H250V685H166.7Z" fill="#FFB41F"/>
<path d="M166.7 703.6V712.7H250V703.6H166.7Z" fill="#FFB41F"/>
<path d="M166.7 722.3V731.4H250V722.3H166.7Z" fill="#FFB41F"/>
<path d="M166.7 741V749.7H250V741H166.7Z" fill="#FFB41F"/>
<path d="M0 666.4L0 749.7H83.3V666.4H0Z" fill="#4D76F7"/>
<path d="M0 708L0 749.7H41.7V708H0Z" fill="#FFF9EB"/>
<path d="M41.7 666.4H0L0 708H41.7V666.4Z" fill="#2E3675"/>
<path d="M41.7 708.1V749.7H83.4V708.1H41.7Z" fill="#4D76F7"/>
<path d="M41.7 666.4V708H83.4V666.4H41.7Z" fill="#FF4A4A"/>
<path d="M0 583.1L0 666.4H83.3V583.1H0Z" fill="#4D76F7"/>
<path d="M0 624.7L0 666.4H41.7V624.7H0Z" fill="#FFF9EB"/>
<path d="M41.7 583.1H0L0 624.7H41.7V583.1Z" fill="#2E3675"/>
<path d="M41.7 624.8V666.4H83.4V624.8H41.7Z" fill="#4D76F7"/>
<path d="M41.7 583.1V624.7H83.4V583.1H41.7Z" fill="#FF4A4A"/>
<path d="M83.3 583.1H166.7L250 499.8H83.3V583.1Z" fill="#FFF9EB"/>
<path d="M250 499.8V583.1H333.3V499.8H250Z" fill="#FFB41F"/>
<path d="M250 499.8L166.7 583.1H250L333.3 499.8H250Z" fill="#FF4A4A"/>
<path d="M416.7 416.5H500V333.2H416.7V416.5Z" fill="#FFB41F"/>
<path d="M416.7 333.2H500V249.9H416.7V333.2Z" fill="#FFB41F"/>
<path d="M416.7 249.9H500V166.6H416.7V249.9Z" fill="#FFB41F"/>
<path d="M333.3 166.6V249.9H416.6V166.6H333.3Z" fill="#2E3675"/>
<path d="M333.3 208.3V249.9H250V416.5H416.7V249.9V208.3C416.7 185.3 398 166.7 375 166.7C352 166.6 333.3 185.3 333.3 208.3Z" fill="#FF4A4A"/>
<path d="M333.3 83.3V166.6H416.6V83.3H333.3Z" fill="#2E3675"/>
<path d="M500 166.6L250 416.5H500V166.6Z" fill="#2E3675"/>
<path d="M416.7 416.5H500V333.2C454 333.2 416.7 370.5 416.7 416.5Z" fill="#FF4A4A"/>
<path d="M333.3 374.9V416.5H375V374.9H333.3Z" fill="#FF4A4A"/>
<path d="M375 333.2H333.3V374.9H375V333.2Z" fill="#FFF9EB"/>
<path d="M375 374.9V416.5H416.7V374.9H375Z" fill="#FFF9EB"/>
<path d="M375 333.3V374.9H416.7V333.3H375Z" fill="#FF4A4A"/>
<path d="M416.3 249.5L333.3 333.2H416.7L416.3 249.5Z" fill="#FFB41F"/>
<path d="M250 291.6V333.2H291.7V291.6H250Z" fill="#2E3675"/>
<path d="M291.7 249.9H250V291.6H291.7V249.9Z" fill="#FFF9EB"/>
<path d="M291.7 291.6V333.2H333.4V291.6H291.7Z" fill="#FFF9EB"/>
<path d="M291.7 250V291.6H333.4V250H291.7Z" fill="#2E3675"/>
<path d="M0 249.9L0 333.2H83.3V249.9H0Z" fill="#FFF9EB"/>
<path d="M0 83.4L0 166.6H83.3V83.4H0Z" fill="#4D76F7"/>
<path d="M83.3 249.9L0 333.2L0 166.6L83.4 83.2999L83.3 249.9Z" fill="#FF4A4A"/>
<path d="M83.3 249.9L0 166.6L0 333.2L83.3 249.9Z" fill="#2E3675"/>
<path d="M166.7 416.5L0 583.1L0 416.5H166.7Z" fill="#FF4A4A"/>
<path d="M250 499.8H83.3L166.7 416.5L250 499.8Z" fill="#4D76F7"/>
<path d="M83.3 499.8V583.1H0L83.3 499.8Z" fill="#FFB41F"/>
<path d="M83.3 666.4V750H166.6V666.4H83.3Z" fill="#FFB41F"/>
<path d="M83.3 749.7H166.6V666.4C120.6 666.4 83.3 703.7 83.3 749.7Z" fill="#FF4A4A"/>
<path d="M166.7 249.9V333.2H250V249.9H166.7Z" fill="#4D76F7"/>
<path d="M250 333.2H166.7L250 249.9V333.2Z" fill="#FFF9EB"/>
<path d="M333.3 749.7C425.3 749.7 500 675.1 500 583.1H416.7H333.4V749.7H333.3Z" fill="#4D76F7"/>
<path d="M364.5 645.4C364.5 649.8 360.9 653.4 356.5 653.4C352.1 653.4 348.5 649.8 348.5 645.4C348.5 641 352.1 637.4 356.5 637.4C360.9 637.4 364.5 641 364.5 645.4Z" fill="#FFF9EB"/>
<path d="M364.5 607.3C364.5 611.7 360.9 615.3 356.5 615.3C352.1 615.3 348.5 611.7 348.5 607.3C348.5 602.9 352.1 599.3 356.5 599.3C360.9 599.3 364.5 602.9 364.5 607.3Z" fill="#FFF9EB"/>
<path d="M403.2 645.4C403.2 649.8 399.6 653.4 395.2 653.4C390.8 653.4 387.2 649.8 387.2 645.4C387.2 641 390.8 637.4 395.2 637.4C399.6 637.4 403.2 641 403.2 645.4Z" fill="#FFF9EB"/>
<path d="M403.2 607.3C403.2 611.7 399.6 615.3 395.2 615.3C390.8 615.3 387.2 611.7 387.2 607.3C387.2 602.9 390.8 599.3 395.2 599.3C399.6 599.3 403.2 602.9 403.2 607.3Z" fill="#FFF9EB"/>
<path d="M500 583.1H416.7V727.4C466.5 698.6 500 644.8 500 583.1Z" fill="#FF4A4A"/>
<path d="M416.7 666.4V727.4C442 712.8 463.1 691.7 477.7 666.4H416.7Z" fill="#2E3675"/>
<path d="M416.7 83.3H500V6.10352e-05H416.7V83.3Z" fill="#FFB41F"/>
<path d="M250 6.10352e-05V83.3H333.3V6.10352e-05H250Z" fill="#FFB41F"/>
<path d="M333.3 6.10352e-05V83.3H416.6V6.10352e-05H333.3Z" fill="#2E3675"/>
<path d="M250 83.4L500 83.4V0L250 0V83.4Z" fill="#FF4A4A"/>
<path d="M416.7 83.3V41.6V6.10352e-05L333.3 41.6L416.7 83.3Z" fill="#FFB41F"/>
<path d="M386.2 50.9001C391.2 50.9001 395.2 46.9001 395.2 41.9001C395.2 36.9001 391.2 32.9001 386.2 32.9001C381.2 32.9001 377.2 36.9001 377.2 41.9001C377.2 46.8001 381.3 50.9001 386.2 50.9001Z" fill="#FF4A4A"/>
<path d="M500 83.3V41.6V6.10352e-05L416.7 41.6L500 83.3Z" fill="#2E3675"/>
<path d="M473.2 50.9001C478.2 50.9001 482.2 46.9001 482.2 41.9001C482.2 36.9001 478.2 32.9001 473.2 32.9001C468.2 32.9001 464.2 36.9001 464.2 41.9001C464.2 46.8001 468.2 50.9001 473.2 50.9001Z" fill="#FFF9EB"/>
<path d="M333.3 83.3V41.6V6.10352e-05L250 41.6L333.3 83.3Z" fill="#FFF9EB"/>
<path d="M296.3 50.9001C301.3 50.9001 305.3 46.9001 305.3 41.9001C305.3 36.9001 301.3 32.9001 296.3 32.9001C291.3 32.9001 287.3 36.9001 287.3 41.9001C287.3 46.8001 291.4 50.9001 296.3 50.9001Z" fill="#2E3675"/>
<path d="M166.7 6.10352e-05V83.3H250V6.10352e-05H166.7Z" fill="#2E3675"/>
<path d="M125 83.3H166.7V41.6H125V83.3Z" fill="#FF4A4A"/>
<path d="M83.3 41.6V83.3H125V41.6H83.3Z" fill="#FFF9EB"/>
<path d="M125 0.00012207V41.6001H166.7V0.00012207H125Z" fill="#FFF9EB"/>
<path d="M83.3 0.00012207V41.6001H125V0.00012207H83.3Z" fill="#FFF9EB"/>
<path d="M0 374.5L0 457.3H9.1L9.1 374.5H0Z" fill="#FFF9EB"/>
<path d="M18.6 374.5L18.6 457.3H27.7L27.7 374.5H18.6Z" fill="#FFF9EB"/>
<path d="M37.3 374.5L37.3 457.3H46.4L46.4 374.5H37.3Z" fill="#FFF9EB"/>
<path d="M55.9 374.5L55.9 457.3H65V374.5H55.9Z" fill="#FFF9EB"/>
<path d="M74.6 374.5V457.3H83.7V374.5H74.6Z" fill="#FFF9EB"/>
</g>
<defs>
<clipPath id="clip0">
<rect width="750" height="500" fill="white" transform="translate(0 750) rotate(-90)"/>
</clipPath>
</defs>
</svg>
